<svg width="210" height="337" viewBox="0 0 210 337" fill="none" xmlns="http://www.w3.org/2000/svg">
<path d="M189.696 255.587C190.079 255.772 190.463 255.958 190.85 256.14C189.006 260.021 187.571 264.171 185.235 267.733C180.69 274.666 175.598 281.239 170.816 288.023C165.183 296.015 159.696 304.108 154.045 312.086C146.474 322.773 138.451 333.314 124.52 335.693C116.716 337.028 108.542 337.301 100.643 336.69C93.411 336.13 85.8473 334.777 79.3093 331.834C73.6255 329.273 69.0222 324.166 64.2109 319.888C59.009 315.265 54.0991 310.318 49.1162 305.454C48.5503 304.905 48.324 303.992 48.0247 303.214C47.9882 303.115 48.5832 302.591 48.7037 302.65C49.7404 303.144 50.737 303.726 52.0292 304.436C52.0767 304.41 52.1388 304.381 52.1826 304.359C53.8253 305.331 55.3913 306.258 57.0121 307.219C56.8515 307.43 56.7092 307.619 56.7238 307.6C58.1985 308.885 59.6551 310.158 61.5643 311.82H61.8198C62.7762 313.461 63.7144 315.072 64.7877 316.913C64.795 316.913 64.7986 316.909 64.7877 316.913C64.7585 316.916 64.7585 316.916 64.7658 316.916C64.7366 316.92 64.6818 316.931 64.5832 316.949C69.5625 320.27 74.111 323.3 78.3528 326.13C84.1169 327.011 89.0779 327.767 94.0389 328.524C94.1448 328.102 94.2507 327.68 94.3529 327.258C95.7985 327.622 97.244 327.985 98.9488 328.415C99.135 327.891 99.427 327.069 99.73 326.21C101.296 326.701 102.698 327.138 104.103 327.578C104.162 327.411 104.216 327.243 104.275 327.076C104.899 327.432 105.527 327.793 105.553 327.807C108.845 327.389 111.59 327.04 114.336 326.694C114.288 326.305 114.241 325.916 114.193 325.526C115.358 326.156 116.522 326.785 117.625 327.378C120.18 327.127 122.922 326.854 125.663 326.585C125.575 326.876 125.488 327.167 125.4 327.458C129.996 325.097 134.592 322.736 138.976 320.485C143.992 312.919 149.092 305.225 154.195 297.528C154.363 297.63 154.531 297.732 154.699 297.834C155.852 295.622 157.006 293.407 158.171 291.173C158.054 290.962 157.955 290.791 157.941 290.762C159.291 287.597 160.573 284.593 161.876 281.537C161.795 281.519 161.693 281.497 161.569 281.468C164.869 277.478 167.852 273.866 170.874 270.206C170.845 269.908 170.823 269.639 170.787 269.26H172.269C173.579 266.812 174.846 264.452 175.978 262.338C176.562 261.858 177.047 261.458 177.533 261.058C177.372 260.861 177.211 260.668 177.051 260.472C178.518 259.315 179.913 258.035 181.497 257.064C182.081 256.707 183.118 257.053 183.943 257.136C184.341 257.176 184.728 257.438 185.118 257.431C185.272 257.427 185.454 256.987 185.567 256.725C186.224 255.132 186.867 253.532 187.374 252.28C188.605 252.211 189.123 252.182 190.707 252.095C190.193 253.179 189.871 253.859 189.59 254.452C189.926 254.608 190.287 254.779 190.689 254.965C190.167 255.289 189.933 255.438 189.696 255.587ZM58.6403 240.305C57.6072 241.757 56.972 242.648 56.074 243.907L60.2282 244.238C60.4399 245.38 60.418 245.252 60.6298 246.395L56.2638 248.475C56.4974 248.679 56.7347 248.886 56.9683 249.09C57.264 248.959 57.5597 248.825 58.2862 248.497C57.8919 249.447 57.6364 250.054 57.348 250.742C57.9868 251.102 58.7133 251.505 59.4361 251.913C59.3813 252.062 59.3265 252.211 59.2718 252.36C68.6353 255.449 77.9951 258.537 85.9057 261.145C92.2028 261.676 96.8534 262.065 101.508 262.458C108.736 264.968 115.467 260.457 122.407 259.937C129.368 259.417 136.914 260.556 141.528 253.852C141.864 252.557 142.203 251.262 142.762 249.116C142.74 248.981 142.678 248.599 142.66 248.483C144.207 248.483 145.916 248.963 146.927 248.33C147.73 247.828 147.686 245.973 148.172 244.128C148.968 245.653 149.293 246.282 149.61 246.886C150.041 245.874 150.377 245.078 150.848 243.965C152.651 243.83 154.045 243.728 156.437 243.554C154.717 241.691 153.396 240.262 152.03 238.785C153.735 236.188 154.936 236.602 167.384 244.721C165.975 248.686 164.471 252.913 162.967 257.14C162.518 256.98 162.069 256.824 161.62 256.664C161.368 253.746 158.247 253.062 155.09 255.336C152.826 256.965 150.629 258.697 148.482 260.479C147.252 261.501 146.182 262.716 144.569 264.31C144.656 264.492 144.788 264.768 144.905 265.008C144.218 265.641 143.645 266.172 143.222 266.565C142.784 266.285 142.065 265.757 142.021 265.808C141.075 266.918 140.203 268.089 139.027 268.144C131.92 270.934 124.812 273.724 118.15 276.339C118.274 275.761 118.468 274.855 118.661 273.949C117.705 273.851 116.745 273.756 115.683 273.647C115.935 272.822 116.3 271.643 116.822 269.941C118.731 274.888 121.304 271.821 123.217 270.934C124.166 270.494 124.367 268.453 124.907 267.136C123.644 266.791 122.378 266.147 121.118 266.158C118.256 266.183 115.394 266.525 112.536 266.754C109.97 266.958 107.356 267.598 104.848 267.303C101.106 266.867 97.4375 265.797 93.7432 264.964C90.717 264.281 87.7017 263.549 84.6791 262.847C84.5258 262.811 84.2557 262.807 84.2009 262.895C81.5726 266.874 79.521 262.585 77.1883 262.429C76.8087 262.404 76.3779 262.535 76.0348 262.716C75.7099 262.887 75.4142 263.48 75.1988 263.437C73.9394 263.178 72.6289 262.378 71.4863 262.589C70.7306 262.727 70.2269 264.251 69.9239 264.695C64.3094 262.134 59.1039 259.759 53.0258 256.987C53.4675 255.801 54.2049 253.819 54.9423 251.833C55.1212 251.953 55.3037 252.069 55.4826 252.189V241.64C55.8951 241.629 56.3076 241.618 56.7238 241.611C56.7676 241.368 56.7274 240.989 56.8698 240.906C57.2093 240.691 57.6327 240.622 58.6403 240.305ZM144.715 264.244C144.613 264.026 144.635 264.077 144.715 264.244V264.244ZM92.3816 234.329C88.5705 234.074 84.7302 234.256 80.4811 234.256C82.8247 235.864 85.6282 237.875 88.545 239.709C89.1254 240.073 90.1329 239.76 91.2828 239.76C91.1551 239.643 91.3522 239.825 90.4615 239.021C93.6191 240.069 95.4699 240.68 97.3171 241.295C97.4777 241.124 97.6347 240.953 97.7953 240.778C96.8242 239.905 95.8532 239.032 94.915 238.192C98.2844 234.151 94.4149 234.463 92.3816 234.329ZM21.8617 266.725C21.5624 266.881 21.2667 267.038 20.9673 267.194C22.1793 269.621 23.3912 272.047 24.9281 275.117C25.1143 273.804 25.5414 272.913 25.2676 272.381C24.2564 270.428 23.0152 268.598 21.8617 266.725ZM44.9327 296.509C43.2243 295.284 40.8807 294.749 39.53 293.268C38.3764 291.999 38.2414 289.809 37.6829 288.107C37.5368 288.172 37.1316 288.358 37.1353 288.358C34.2879 284.116 31.6523 280.195 28.3011 275.204C27.8083 277.012 27.1074 278.118 27.4104 278.744C28.3741 280.752 29.6226 282.643 30.9258 284.462C32.2108 286.259 33.7002 287.91 35.0983 289.627C36.7629 291.828 38.5955 293.905 40.439 295.978C41.2275 296.862 42.0123 297.75 42.8337 298.601C43.885 299.689 44.9765 300.74 46.0498 301.806C46.8602 300.951 47.6742 300.092 47.7618 300.002C46.6046 298.532 45.9621 297.252 44.9327 296.509ZM27.8813 273.596C27.1439 274.037 26.37 274.433 25.702 274.961C25.5596 275.073 25.7969 275.666 25.859 276.037C26.6803 275.484 27.5053 274.931 28.3267 274.379C28.177 274.117 28.031 273.858 27.8813 273.596ZM99.0839 248.115C98.978 247.57 98.8685 247.02 98.5728 245.522C98.1713 247.355 97.9705 248.272 97.7843 249.126C97.1126 248.046 96.5578 247.155 96.0029 246.264V249.949C95.9007 250.44 95.6926 251.418 95.4845 252.393C97.1236 252.462 97.5726 253.059 98.0033 253.673C98.4487 254.306 98.8868 254.943 99.0218 255.139C101.296 255.139 102.307 255.128 103.315 255.143C103.943 255.15 104.578 255.256 105.202 255.216C107.757 255.052 110.389 254.354 112.843 254.761C119.344 255.841 122.918 253.568 124.367 247.311C124.765 245.605 126.145 243.943 127.474 242.677C129.065 241.157 131.73 240.462 132.767 238.719C134.373 236.024 134.994 232.743 135.742 230.557C132.727 231.506 130.036 232.499 127.262 233.168C125.674 233.55 123.958 233.409 121.991 233.521C120.505 234.798 119.187 236.006 117.785 237.108C116.27 238.297 114.825 239.887 113.083 240.411C110.159 241.287 105.242 237.785 105.005 244.267C103.519 243.91 101.869 243.514 100.197 243.114C100.018 242.841 99.8249 242.368 99.4708 242.095C99.3321 241.986 98.843 242.328 98.4195 242.499C99.1934 243.408 100.164 244.078 100.394 244.943C100.665 245.962 100.292 247.151 100.201 248.264C99.8286 248.21 99.4562 248.163 99.0839 248.115ZM115.215 274.12C113.762 274.637 112.31 275.15 110.857 275.666C111.039 276.081 111.222 276.499 111.404 276.914C112.788 276.27 114.171 275.63 115.555 274.986C115.445 274.699 115.332 274.411 115.215 274.12ZM51.792 242.215C51.7116 242.295 52.1753 242.906 52.8615 244.092C54.2597 242.088 55.311 240.6 56.3112 239.079C56.3624 238.999 55.9754 238.628 55.7892 238.396C54.4422 239.654 53.0806 240.902 51.792 242.215ZM92.2612 271.388C90.863 271.829 89.7387 272.181 88.618 272.534C88.6435 272.789 88.6691 273.044 88.6946 273.294C89.7825 273.185 90.8922 273.167 91.9363 272.891C92.1699 272.829 92.1662 271.869 92.2612 271.388ZM205.09 177.415C199.425 175.844 199.209 178.972 198.767 183.37C196.526 205.665 174.744 222.016 152.56 218.058C141.298 216.046 133.395 209.306 128.229 199.215C127.605 197.993 126.065 197.236 124.739 196.083L124.601 197.226C124.137 197.244 124.258 197.24 123.794 197.255C123.301 194.81 122.83 192.359 122.305 189.921C121.867 187.899 121.352 185.891 120.888 183.872C120.812 183.53 120.655 182.977 120.808 182.85C124.67 179.656 121.027 175.924 121.534 172.501C121.564 172.294 120.775 171.748 120.348 171.726C112.299 171.308 104.242 170.755 96.1964 170.813C95.156 170.82 94.1375 174.047 93.2103 175.611C95.4553 180.027 96.1234 184.196 93.3344 188.241C91.5311 190.853 89.4612 193.282 87.0227 195.392C75.301 211.263 60.0822 217.156 41.6655 209.386C23.6285 201.776 16.4298 186.778 17.576 167.285C15.2251 167.106 12.6917 166.663 10.1838 166.779C4.88332 167.026 8.26366 162.698 6.89473 160.883C6.29241 160.082 6.06973 158.995 5.10235 156.648V160.155C4.87237 160.144 4.64239 160.13 4.41241 160.119C4.51827 159.049 4.73365 157.976 4.7008 156.91C4.63509 154.666 4.48907 152.422 4.29194 150.184C3.53264 141.556 2.8281 132.924 1.91913 124.31C1.49568 120.309 0.305622 116.366 0.0975453 112.365C-0.0886291 108.756 0.794787 105.104 0.827641 101.466C0.853194 98.8729 -0.234648 96.2211 0.0464386 93.6893C0.5137 89.4661 1.57599 85.2974 2.57257 81.147C3.34282 77.9423 3.82103 74.4611 5.47835 71.7329C7.30724 68.7138 10.4686 66.5203 12.783 63.7521C13.9365 62.3698 14.433 60.4637 15.3638 58.8741C15.7106 58.2812 16.448 57.9138 17.0978 57.3682C16.751 57.1936 16.5539 57.0917 16.1852 56.9062C16.7109 56.6006 17.0978 56.3715 17.284 56.2623C17.7294 56.7461 18.0688 57.1099 19.3648 58.5104C18.5763 56.8298 18.4083 56.4697 18.3864 56.426C20.4672 54.2398 22.4275 52.1992 24.3477 50.1221C24.5046 49.9548 24.5192 49.3582 24.4097 49.3C24.0629 49.1072 23.6249 49.0745 21.8909 48.6635C27.6514 45.7789 32.5101 43.3417 37.3689 40.9081C37.0696 40.3843 36.7666 39.8569 36.4673 39.3331C37.3324 38.6892 38.183 38.0308 39.0627 37.4124C39.3767 37.1942 39.7928 37.1251 40.1068 36.9032C43.4251 34.5569 46.7032 32.1598 50.0507 29.8572C51.6131 28.7805 53.2631 27.8129 54.9496 26.9471C55.3037 26.7653 55.9426 27.1254 56.6434 27.3364C56.8917 27.7692 57.3224 28.093 57.9321 28.1548C57.881 28.3258 57.8262 28.4931 57.7751 28.6641C58.6257 28.7623 59.4762 28.8641 59.7135 28.8896C61.0496 27.2891 62.0681 26.0668 62.758 25.2411C65.39 23.3132 67.5109 21.6836 69.7195 20.1849C70.6941 19.5229 71.855 19.13 72.9355 18.6171C72.9611 18.6062 73.0049 18.588 73.0158 18.5953C76.4254 22.1892 76.0676 16.5437 78.0462 16.7183C77.9914 16.9002 77.9038 17.2057 77.8126 17.5113C77.9659 17.6168 78.1192 17.7186 78.2725 17.8241C78.5317 17.373 78.988 16.9184 78.9844 16.4673C78.9844 16.2527 78.6084 16.0381 78.4733 15.9871C80.5833 15.3105 82.7809 14.6049 84.5806 14.0265C85.6903 13.0516 86.5336 12.2659 87.4571 11.5857C87.5301 11.5311 88.1398 12.1859 88.9064 12.8806C89.662 12.4623 90.6367 11.6584 91.7391 11.4111C92.4765 11.2437 93.3782 11.9567 94.2361 12.1022C94.6413 12.1713 95.2253 11.9458 95.5356 11.6511C95.9372 11.2728 96.1489 10.6981 96.5066 10.1015C96.7658 10.4398 96.9046 10.6254 97.1053 10.8873C98.54 8.99936 99.9417 7.15147 101.493 5.10715C102.19 6.77316 102.738 8.08633 103.286 9.39585C103.694 9.31583 103.61 9.33037 104.019 9.25035V6.94049C104.373 6.75861 104.757 6.55854 105.33 6.2639C105.209 6.66767 105.107 7.01688 105.052 7.20967C106.188 6.91139 108.305 6.35848 110.422 5.80193C109.758 5.13262 109.097 4.46694 108.433 3.79763C110.517 3.22289 112.605 2.64815 114.73 2.0625C115.131 2.5172 115.391 2.81184 115.752 3.21925C115.836 2.7209 115.905 2.33168 115.945 2.08433C116.942 1.96793 117.836 1.86244 118.026 1.84061C118.738 2.75364 119.118 3.24108 119.501 3.73215C120.019 3.29564 120.534 2.85913 121.297 2.21528C120.567 2.05523 120.311 1.99703 119.72 1.86608C120.085 1.30953 120.37 0.873018 120.939 0C122.995 2.18982 124.849 4.16502 126.901 6.3512C128.58 4.96893 130.511 3.37931 132.34 1.87335C133.052 2.85186 133.669 3.69577 133.847 3.94677C136.165 3.79399 137.673 3.69577 139.586 3.56846C139.418 4.10318 139.254 4.62699 139.141 4.99803C141.634 5.46727 144.405 5.98381 147.456 6.55854V12.9388C147.905 11.833 148.143 11.2365 148.752 9.73051C150.778 10.8254 152.728 11.9567 154.75 12.9425C155.674 13.3935 156.794 13.4408 157.722 13.8773C160.616 15.2451 163.383 16.9475 166.384 17.9951C167.257 18.3006 168.75 16.8456 170.527 15.8926C171.294 18.0897 172.225 20.756 173.021 23.0404C177.894 25.0847 182.884 27.1763 187.874 29.2679C187.973 29.046 188.072 28.8241 188.174 28.6022C189.973 29.3188 191.773 30.0318 193.573 30.7484C193.493 30.9521 193.412 31.1522 193.332 31.3559C195.749 32.8218 198.161 34.2878 200.578 35.7573C200.567 35.7683 200.556 35.7792 200.542 35.7901C201.987 36.6158 203.436 37.4415 205.094 38.3909C203.495 40.3771 202.166 42.0212 200.837 43.6691C201.505 44.0765 202.173 44.4766 202.838 44.8877C204.115 45.6806 205.4 46.4591 206.649 47.2848C206.97 47.4958 207.182 47.8741 207.802 48.5871C205.904 48.307 204.393 48.0196 202.867 47.8886C202.352 47.845 201.797 48.1615 201.286 48.3797C201.195 48.4197 201.166 48.9217 201.228 48.9508C201.746 49.1836 202.279 49.4201 202.834 49.5365C204.002 49.7802 205.181 49.9548 206.182 50.1258C205.703 51.7154 205.006 52.9776 205.123 54.1635C205.17 54.6291 207.029 54.9201 207.857 55.2184C208.529 54.1053 209.025 53.2795 210 51.6645C209.566 54.3744 209.274 56.175 208.985 57.9756C208.638 57.7792 208.288 57.5864 207.941 57.39C207.189 58.9541 206.47 60.5329 205.674 62.0752C205.32 62.7627 204.791 63.3556 204.378 64.0176C204.174 64.3414 203.878 64.7415 203.926 65.0653C204.229 67.1933 204.378 69.3903 205.035 71.4165C205.784 73.7263 207.751 75.8361 207.894 78.1096C208.434 86.6615 208.368 95.2499 208.686 103.82C208.908 109.829 209.828 115.849 209.624 121.833C209.365 129.367 208.197 136.864 207.561 144.386C207.127 149.541 206.934 154.713 206.572 160.988C204.685 148.526 202.958 137.151 201.283 126.093C201.038 126.038 200.881 126.006 200.793 125.987C200.881 126.006 201.031 126.038 201.224 126.078C200.761 123.612 200.25 121.349 199.925 119.058C199.461 115.799 199.311 112.485 198.709 109.255C198.045 105.708 197.074 102.212 196.128 98.7201C195.456 96.2393 194.942 93.6311 193.763 91.3867C191.448 86.9744 188.754 82.7512 186.108 78.5207C185.812 78.0441 184.808 77.9859 184.122 77.7749C183.713 77.6476 183.275 77.604 182.851 77.5203C182.983 77.1675 183.114 76.8183 183.384 76.0944C181.187 74.7594 178.854 73.228 176.401 71.9148C175.393 71.3765 174.127 71.311 172.977 71.0309C173.952 72.4423 174.817 73.9519 175.945 75.2323C176.693 76.0835 177.817 76.6146 178.336 78.5534C174.233 77.5858 170.133 76.6218 164.522 75.2978C162.376 75.0395 158.62 74.5848 154.56 74.0974C152.556 78.3169 150.767 73.9628 148.771 73.5044C145.868 72.8351 143.003 71.9985 139.863 71.1618C133.391 70.8708 126.831 70.5762 120.29 70.2815C120.133 70.6817 120.049 70.9036 119.775 71.5984C112.39 68.9393 105.034 66.2875 97.6748 63.6357C97.7296 63.4793 97.7843 63.3192 97.8391 63.1628C90.874 61.144 83.9125 59.1287 76.7685 57.059C76.6992 56.8662 76.5531 56.4697 76.3414 55.884C73.6218 55.2802 70.8511 54.6618 68.0694 54.0434C68.1826 53.6433 68.2885 53.2613 68.4126 52.8066H65.2659C65.2221 53.1195 65.1819 53.4287 65.1381 53.7415C63.4662 53.2723 61.7468 52.2974 60.1369 52.4538C57.5816 52.6975 54.9533 53.3777 52.6243 54.4472C47.5355 56.7752 42.5124 59.2852 37.6683 62.0752C35.2626 63.4611 32.6781 65.1489 33.6053 68.9175C33.7549 69.5322 31.791 70.6198 30.8638 71.5438C29.9183 72.4859 28.9363 73.4208 28.1588 74.4939C26.8081 76.349 25.5414 78.2697 24.3623 80.2376C23.519 81.6453 22.8765 83.1731 22.0442 84.8464C22.0625 84.8391 21.8069 84.9337 21.482 85.0537C21.5989 85.3957 21.7047 85.7012 21.8434 86.1086C20.96 86.6979 20.073 87.2908 18.5361 88.313C15.7252 100.83 12.7793 113.936 9.84067 127.013H9.6764C9.18358 129.203 8.74188 131.149 8.30382 133.095C8.43159 133.092 8.55935 133.084 8.68712 133.081C8.07019 136.816 7.45326 140.556 7.01155 143.229C7.24883 144.965 7.38025 145.736 7.45326 146.511C7.88401 150.963 7.59198 155.688 9.13613 159.719C9.62529 160.995 15.0536 160.886 18.1163 160.522C19.7846 160.322 21.4492 158.449 22.7342 157.001C29.5934 149.275 38.8547 147.431 48.47 146.285C52.92 145.754 57.3443 145.001 60.9036 144.477C60.6663 144.397 60.1589 144.223 59.4397 143.975C61.7322 143.87 63.4297 143.36 64.8205 143.801C70.2853 145.532 75.7026 147.445 81.0213 149.573C82.1603 150.028 82.8137 151.665 83.719 152.734C84.0512 153.124 84.4674 153.444 84.8434 153.797C85.0661 153.262 85.2924 152.731 85.5114 152.196C85.829 151.429 86.1393 150.657 86.7307 149.206C88.0741 151.603 89.0852 153.415 90.7681 156.419C88.7019 155.768 88.4172 155.681 88.1361 155.59L87.8842 155.968C88.3989 156.263 88.9064 156.554 88.983 156.598C88.6289 158.776 87.7054 160.846 88.1325 162.589C88.921 165.826 90.4943 168.874 91.5384 171.497C95.3385 163.687 102.366 168.718 107.779 168.187C112.832 167.688 118.034 168.732 123.173 168.911C123.787 168.933 124.666 167.907 125.039 167.176C127.364 162.589 129.609 157.962 131.799 153.309C132.175 152.509 132.15 151.523 132.311 150.625C132.803 151.09 133.3 151.556 133.793 152.021C134.902 151.385 134.826 151.429 135.935 150.792L135.83 150.345C141.035 149.002 146.179 147.325 151.461 146.416C156.542 145.539 161.755 145.408 166.913 144.975C167.246 145.623 167.268 145.667 167.6 146.31C167.085 146.911 166.57 147.507 166.26 147.871C166.537 148.973 166.756 149.85 167.052 151.017H172.024C170.976 153.051 170.998 152.967 176.259 154.339C184.731 156.547 191.901 160.693 196.574 168.365C196.833 168.794 197.048 169.26 197.212 169.733C197.366 170.177 197.42 170.649 197.435 170.719C200.184 170.89 202.922 170.679 205.375 171.402C206.339 171.686 206.923 174.032 207.156 175.524C207.251 176.08 205.608 177.561 205.09 177.415ZM9.88813 161.654C9.53768 161.592 9.19088 161.534 8.84044 161.472C8.63601 162.672 8.43159 163.869 8.22351 165.069C8.563 165.106 9.19088 165.204 9.19819 165.164C9.46832 164.004 9.67275 162.829 9.88813 161.654ZM49.1125 147.034H57.2604L57.2859 146.772C54.57 146.62 51.854 146.467 49.1344 146.314C49.1271 146.551 49.1198 146.791 49.1125 147.034ZM89.7022 175.637C89.3225 175.88 89.1254 176.008 89.0706 176.04C87.4608 174.684 85.9641 173.367 84.398 172.141C84.0768 171.89 83.4891 171.981 83.0218 171.915C83.0327 172.297 82.9962 172.687 83.0656 173.061C83.208 173.854 83.3686 174.64 83.5292 175.429C83.438 175.411 83.3467 175.393 83.2481 175.386C82.7334 175.346 82.2296 175.113 81.7332 174.902C81.7405 174.887 81.7514 174.869 81.7587 174.855C81.6857 174.844 81.6164 174.833 81.5434 174.825C81.3645 174.753 81.1893 174.687 81.0104 174.64C80.5358 174.513 80.0613 174.378 79.5867 174.247C79.3385 174.021 79.0099 173.861 78.5974 173.825C78.393 173.476 78.0681 173.196 77.6191 173.072C74.936 170.613 72.2748 168.172 69.1938 165.35C68.9529 167.256 68.6462 168.463 68.6754 169.66C68.7667 173.516 65.7404 176.852 61.933 176.946C53.3179 177.164 51.2261 175.968 49.7769 170.751C49.4265 169.489 47.8786 168.049 46.6119 167.71C45.6665 167.459 44.0237 168.634 43.1805 169.598C42.6366 170.217 42.9651 171.599 42.8921 172.999C42.7607 172.999 42.5124 173.01 42.2679 173.061C40.6507 173.396 39.0153 173.687 37.4419 174.163C35.7591 174.673 34.1346 175.375 32.4846 175.993V168.063C32.9737 168.038 33.4629 168.016 33.9484 167.99C33.9302 167.918 33.9156 167.849 33.9046 167.798C33.9229 167.87 33.9521 168.009 34.0068 168.241C42.0671 155.255 54.3436 155.397 67.792 157.016C66.6859 156.103 66.5034 155.954 66.3245 155.805C66.1858 154.906 65.7149 154.51 65.171 154.331C62.0133 153.287 58.8374 152.294 54.6101 150.945C54.6904 150.905 54.7561 150.876 54.8146 150.847C54.7853 150.847 54.7561 150.839 54.7269 150.832C54.3327 150.697 54.1648 150.003 53.7888 149.69C53.1207 149.137 52.2994 148.187 51.6605 148.271C46.2286 149.006 40.658 149.391 35.4451 150.93C26.0561 153.698 19.5692 160.101 19.3246 170.049C19.164 176.622 20.4417 183.796 23.1576 189.761C29.2174 203.078 40.0265 210.681 55.1212 211.31C62.7689 211.627 69.8837 209.662 75.6369 204.708C79.8897 201.045 83.3175 196.433 87.114 192.246L86.0407 191.282C85.9093 191.562 85.7816 191.842 85.4859 192.479C85.3435 191.365 85.2632 190.747 85.1537 189.863C85.0296 189.59 84.6244 189.132 84.6828 188.735C84.8945 187.23 84.8215 184.781 85.6355 184.418C89.7241 182.584 89.6255 179.249 89.7022 175.637ZM150.034 157.387C150.088 157.743 150.143 158.103 150.198 158.46L153.377 157.914C153.308 157.569 153.202 156.918 153.169 156.921C152.118 157.038 151.078 157.22 150.034 157.387ZM146.657 165.924C143.872 168.274 141.09 170.628 137.837 173.374C139.181 173.247 139.758 173.192 140.323 173.13C140.48 172.832 140.637 172.534 140.831 172.166C141.075 172.432 141.225 172.592 141.813 173.232C143.831 171.079 145.759 169.02 147.686 166.961C147.347 166.615 147 166.27 146.657 165.924ZM133.982 164.215C135.855 164.055 137.016 163.953 138.816 163.796C137.542 163.131 136.896 162.792 136.067 162.359C135.72 162.669 135.143 163.182 133.982 164.215ZM131.46 179.634C132.603 177.375 133.168 174.814 133.84 172.341C133.957 171.912 133.482 171.235 133.114 170.82C133.008 170.704 132.157 170.973 131.92 171.279C129.47 174.44 125.561 177.019 127.937 182.632C129.138 181.66 130.817 180.907 131.46 179.634ZM195.975 170.471C190.203 159.446 179.61 155.608 167.884 154.626C163.712 154.277 159.452 154.87 155.243 155.197C154.863 155.226 154.575 156.463 154.246 157.136C155.699 157.7 157.112 158.475 158.62 158.795C163.336 159.791 168.458 159.813 172.707 161.759C176.138 163.331 178.767 166.954 181.3 170.035C182.709 171.752 183.195 174.222 184.374 177.012C184.067 177.281 183.465 178.205 183.008 178.139C180.493 177.779 177.949 177.372 175.543 176.582C174.068 176.099 172.623 175.105 171.531 173.985C170.129 172.548 169.122 170.729 167.841 169.158C167.735 169.031 166.621 169.391 166.344 169.784C164.712 172.083 163.515 174.782 161.558 176.731C158.7 179.58 149.194 177.252 147.497 173.665C147.186 173.01 146.398 172.123 145.861 172.145C145.124 172.174 144.16 172.807 143.751 173.465C142.926 174.785 142.787 176.917 141.678 177.583C140.141 178.507 137.538 177.808 136.169 178.838C133.596 180.776 131.58 183.45 129.335 185.818C129.817 185.942 130.299 186.066 130.781 186.189C130.507 188.052 130.332 189.936 129.923 191.769C129.627 193.097 128.335 194.563 128.656 195.61C130.854 202.817 135.501 208.156 141.641 212.551C150.293 218.742 168.574 219.48 177.354 213.522C185.746 207.825 192.386 200.667 195.712 190.914C198.015 184.152 199.352 176.924 195.975 170.471ZM90.2242 248.726C90.4213 248.795 90.6184 248.865 90.8156 248.934C91.7136 247.751 92.6079 246.569 93.7177 245.111C92.7795 245.387 91.6552 245.391 91.1697 245.947C90.5746 246.635 90.5126 247.781 90.2242 248.726ZM76.6189 266.03C76.3743 265.514 74.0708 265.936 72.7238 265.987C72.45 265.998 72.1872 266.296 71.917 266.46C72.2967 267.049 72.5486 267.827 73.0852 268.198C75.3813 269.784 77.7615 271.247 80.9301 273.28C81.9413 273.014 83.5949 272.582 85.9531 271.963C84.2776 270.112 83.3722 269.111 82.4669 268.111C79.1231 271.181 77.9695 268.882 76.6189 266.03ZM99.9673 296.018C99.8249 295.276 99.7848 295.054 99.741 294.825C101.336 294.673 102.858 294.527 104.516 294.367C104.366 293.88 104.264 293.556 104.162 293.217C103.676 293.254 103.293 293.283 102.833 293.319C102.869 293.199 102.899 293.094 102.921 293.021C102.289 292.264 101.855 291.748 101.395 291.199C101.311 291.235 101.227 291.271 101.161 291.297C97.6237 290.758 94.6668 290.307 91.7063 289.856L91.8048 289.049C91.3704 289.089 90.936 289.129 90.6148 289.158C90.5381 288.754 90.5272 288.245 90.4286 288.23C89.7861 288.114 89.1254 288.107 86.9424 287.965C86.5372 288.416 85.5516 289.514 84.398 290.798C85.8473 291.806 87.1943 292.741 89.1035 294.069C92.4327 294.665 96.0941 295.324 99.9673 296.018ZM128.864 292.988C129.025 293.243 129.189 293.494 129.35 293.749C130.409 293.163 131.482 292.603 132.508 291.966C132.712 291.839 132.738 291.421 133.004 290.708C132.347 291.213 132.095 291.406 131.843 291.599C131.653 291.381 131.46 291.162 131.27 290.944C130.467 291.624 129.664 292.308 128.864 292.988ZM125.553 289.016C121.633 289.987 117.745 291.115 113.919 292.399C113.587 292.512 113.77 294.145 113.697 295.389C108.407 295.946 102.921 296.524 97.4339 297.099C96.2402 297.783 95.0428 298.11 93.8564 298.474C92.9949 298.739 92.148 299.059 91.2974 299.354C91.9874 300.387 92.6773 301.42 93.7542 303.035C92.6043 305.814 95.0976 305.472 97.4667 305.44C99.511 305.411 101.559 305.592 103.607 305.665C104.852 305.709 106.115 305.88 107.33 305.702C107.984 305.603 108.509 304.829 109.159 304.476C109.586 304.243 110.13 304.221 110.619 304.101C110.616 304.014 110.616 303.926 110.612 303.839C112.974 303.534 115.336 303.228 117.544 302.941C119.636 301.315 121.206 300.092 123.451 298.343C121.527 297.761 120.465 297.437 119.096 297.019C118.99 296.942 118.541 296.619 117.745 296.051C118.764 295.789 119.41 295.626 120.111 295.444C120.114 295.389 120.136 295.156 120.173 294.785C120.855 294.894 121.469 294.989 122.162 295.098C122.086 294.647 122.009 294.174 121.987 294.04C124.082 292.777 125.944 291.661 128.175 290.315C126.999 289.711 126.152 288.871 125.553 289.016ZM51.7993 304.41C51.7555 304.432 51.7628 304.428 51.7993 304.41V304.41ZM162.27 281.486C162.274 281.486 162.277 281.486 162.27 281.486V281.486ZM105.045 7.10418V7.10782C105.041 7.10782 105.041 7.10782 105.045 7.10418ZM60.9729 144.433C60.9656 144.43 60.9583 144.43 60.9474 144.426C60.9583 144.426 60.9656 144.43 60.9729 144.433ZM61.0824 144.47C61.0897 144.47 61.0897 144.47 61.0824 144.47V144.47ZM101.062 291.341C101.048 291.344 101.048 291.344 101.062 291.341V291.341Z" fill="black"/>
</svg>
